<?xml version="1.0" standalone="no"?>
<!DOCTYPE svg PUBLIC "-//W3C//DTD SVG 20010904//EN"
 "http://www.w3.org/TR/2001/REC-SVG-20010904/DTD/svg10.dtd">
<svg version="1.0" xmlns="http://www.w3.org/2000/svg"
 width="200.000000pt" height="200.000000pt" viewBox="0 0 200.000000 200.000000"
 preserveAspectRatio="xMidYMid meet">
<metadata>
Created by potrace 1.14, written by Peter Selinger 2001-2017
</metadata>
<g transform="translate(0.000000,200.000000) scale(0.100000,-0.100000)"
fill="#000000" stroke="none">
<path d="M989 1873 c-34 -42 -40 -55 -10 -24 17 18 30 35 28 37 -2 2 -10 -4
-18 -13z"/>
<path d="M1040 1826 c0 -2 8 -10 18 -17 15 -13 16 -12 3 4 -13 16 -21 21 -21
13z"/>
<path d="M1070 1786 c0 -2 8 -10 18 -17 15 -13 16 -12 3 4 -13 16 -21 21 -21
13z"/>
<path d="M1100 1746 c0 -2 8 -10 18 -17 15 -13 16 -12 3 4 -13 16 -21 21 -21
13z"/>
<path d="M1130 1706 c0 -2 8 -10 18 -17 15 -13 16 -12 3 4 -13 16 -21 21 -21
13z"/>
<path d="M1178 1673 c6 -2 18 -2 25 0 6 3 1 5 -13 5 -14 0 -19 -2 -12 -5z"/>
<path d="M1228 1663 c7 -3 16 -2 19 1 4 3 -2 6 -13 5 -11 0 -14 -3 -6 -6z"/>
<path d="M788 1619 c-21 -11 -38 -24 -38 -29 0 -6 -3 -9 -7 -9 -17 3 -29 -2
-53 -22 -14 -11 -18 -17 -10 -13 13 7 13 5 1 -9 -7 -9 -17 -14 -22 -11 -5 3
-8 2 -7 -3 4 -14 -23 -55 -53 -80 -39 -33 -55 -86 -36 -114 11 -15 14 -36 10
-75 -5 -46 -2 -59 20 -92 32 -49 105 -98 175 -118 120 -35 345 -9 455 52 61
34 189 157 185 178 -1 10 3 23 21 71 5 11 4 31 -2 45 -10 25 -10 25 -16 -9
l-6 -33 -33 46 c-18 25 -36 46 -39 46 -6 0 -5 -2 45 -67 28 -36 31 -45 22 -69
l-11 -28 -20 33 c-18 29 -23 32 -52 26 -18 -4 -36 -11 -41 -16 -16 -14 -36
-10 -36 7 0 9 -5 12 -12 8 -10 -6 -9 -3 0 8 7 9 27 20 43 23 16 4 31 10 33 14
3 4 -6 29 -19 57 -30 62 -42 110 -26 100 17 -11 13 0 -6 15 -11 10 -14 10 -9
2 4 -8 2 -13 -8 -13 -8 0 -51 -12 -96 -26 -91 -28 -87 -16 -44 -129 13 -35 28
-59 36 -58 7 0 28 4 46 8 27 6 31 5 26 -9 -3 -9 -1 -16 5 -16 28 0 6 -19 -35
-30 -45 -13 -45 -14 -39 -46 5 -32 4 -33 -35 -45 -44 -13 -45 -15 -28 -71 10
-33 9 -41 -3 -49 -25 -15 -27 -11 -35 73 l-9 83 -60 31 c-33 17 -63 29 -67 27
-5 -2 -8 2 -8 10 0 9 22 31 50 51 56 40 87 88 67 104 -15 13 -212 72 -238 72
-24 0 -24 12 1 35 11 10 20 23 20 28 0 6 10 21 22 34 26 28 24 28 -24 2z m450
-120 c2 -14 -27 -26 -130 -55 -10 -3 -18 2 -20 13 -3 14 10 22 62 40 71 23 84
24 88 2z m26 -64 c18 -42 18 -45 9 -46 -5 -1 -38 -12 -74 -24 l-67 -23 -16 41
c-9 22 -15 42 -13 43 3 3 131 43 139 43 4 1 14 -15 22 -34z m-610 -37 c-52
-73 -71 -92 -50 -51 16 32 73 103 83 103 3 0 -12 -24 -33 -52z m705 -110 c11
-32 10 -34 -36 -75 -53 -47 -73 -53 -73 -23 0 11 -5 20 -11 20 -5 0 -7 5 -4
10 8 14 -38 13 -52 -1 -14 -14 -33 -3 -33 20 0 12 16 22 55 34 31 9 62 17 70
17 8 0 15 4 15 9 0 5 10 12 23 14 12 2 25 5 29 6 3 0 11 -14 17 -31z m-136
-92 c9 -22 -41 -41 -55 -21 -5 6 -8 4 -8 -6 0 -16 -39 -39 -65 -39 -8 0 -15 8
-15 18 0 12 17 24 58 38 71 27 79 27 85 10z m21 -57 c-3 -6 -13 -8 -21 -5 -8
3 -11 1 -8 -4 3 -5 -17 -21 -44 -35 -60 -30 -57 -30 -64 -5 -3 11 -2 18 1 16
4 -2 34 9 66 24 57 27 84 31 70 9z"/>
<path d="M1190 1634 c0 -14 42 -64 50 -59 14 9 70 -23 114 -64 37 -34 38 -34
19 -6 -11 17 -28 46 -36 66 -12 30 -24 39 -63 53 -49 16 -84 21 -84 10z"/>
<path d="M1380 1597 c0 -2 15 -16 33 -33 l32 -29 -29 33 c-28 30 -36 37 -36
29z"/>
<path d="M1270 1516 c0 -2 8 -10 18 -17 15 -13 16 -12 3 4 -13 16 -21 21 -21
13z"/>
<path d="M594 1478 l-29 -33 33 29 c17 17 32 31 32 33 0 8 -8 1 -36 -29z"/>
<path d="M1300 1472 c0 -12 19 -26 26 -19 2 2 -2 10 -11 17 -9 8 -15 8 -15 2z"/>
<path d="M1437 1215 c-66 -104 -207 -198 -339 -225 -92 -18 -253 -17 -334 3
-101 26 -181 73 -221 131 -18 27 -34 60 -34 75 -2 25 -2 25 -6 2 -3 -13 -117
-184 -254 -379 -137 -195 -249 -362 -249 -371 0 -12 124 -56 540 -189 298 -95
548 -171 558 -168 9 3 215 93 457 199 l440 194 0 35 c0 30 -36 84 -260 386
-143 193 -262 351 -265 351 -3 1 -18 -19 -33 -44z m79 -187 c-3 -29 -6 -93 -6
-141 0 -100 -15 -110 -26 -16 -5 43 -12 62 -25 69 -28 15 -54 12 -83 -11 -21
-16 -26 -29 -26 -63 0 -52 15 -67 113 -116 61 -30 75 -42 95 -80 45 -86 13
-193 -70 -236 -18 -9 -56 -17 -85 -18 l-53 -1 0 -77 c0 -73 -10 -99 -24 -62
-10 25 -7 237 4 294 11 60 16 68 30 54 6 -6 6 -30 1 -64 -12 -72 2 -104 46
-108 61 -6 133 56 133 115 0 49 -22 72 -109 115 -100 50 -123 77 -128 150 -7
89 49 148 141 148 33 0 35 2 41 43 8 49 12 57 27 57 7 0 9 -18 4 -52z m-711
-138 c43 -41 45 -72 9 -141 -24 -49 -27 -51 -57 -45 -49 11 -239 36 -269 36
-33 0 -54 -34 -63 -106 -6 -41 -3 -53 15 -76 19 -26 27 -28 87 -28 65 0 66 0
128 55 57 50 95 69 95 46 0 -4 -30 -40 -67 -78 -38 -39 -90 -100 -118 -136
-46 -60 -76 -83 -89 -70 -7 8 17 51 53 97 17 21 29 42 26 46 -3 4 -34 5 -70 3
-81 -7 -118 7 -141 55 -14 30 -15 43 -5 86 36 156 225 302 379 293 44 -3 58
-9 87 -37z"/>
<path d="M650 884 c-53 -17 -143 -80 -137 -97 5 -17 198 -39 215 -24 24 20 44
69 38 93 -4 14 -18 29 -32 34 -30 12 -28 12 -84 -6z"/>
</g>
</svg>
