<svg width="91" height="18" viewBox="0 0 91 18" fill="none" xmlns="http://www.w3.org/2000/svg">
<g filter="url(#filter0_d_129_3)">
<path d="M11.6007 9H4.9407V0.599999H11.6007V2.28H7.1007V3.9H10.6407V5.58H7.1007V7.32H11.6007V9ZM18.0779 8.88C16.5819 9.04 15.2619 9.12 14.1179 9.12C13.5739 9.12 13.1379 8.956 12.8099 8.628C12.4819 8.3 12.3179 7.864 12.3179 7.32V4.56C12.3179 3.96 12.4859 3.492 12.8219 3.156C13.1659 2.812 13.6379 2.64 14.2379 2.64H18.0779V4.26H14.8979C14.5779 4.26 14.4179 4.42 14.4179 4.74V7.08C14.4179 7.2 14.4579 7.3 14.5379 7.38C14.6179 7.46 14.7179 7.5 14.8379 7.5C15.5579 7.5 16.6379 7.44 18.0779 7.32V8.88ZM21.1355 2.76C21.9115 2.6 22.5915 2.52 23.1755 2.52H23.7155C24.2595 2.52 24.6955 2.684 25.0235 3.012C25.3515 3.34 25.5155 3.776 25.5155 4.32V9H23.4155V4.56C23.4155 4.44 23.3755 4.34 23.2955 4.26C23.2155 4.18 23.1155 4.14 22.9955 4.14H22.5755C22.2715 4.14 21.9915 4.156 21.7355 4.188C21.4875 4.22 21.2875 4.244 21.1355 4.26V9H19.0355V0.599999H21.1355V2.76ZM31.0341 9C30.2581 9.08 29.4981 9.12 28.7541 9.12C28.2101 9.12 27.7741 8.956 27.4461 8.628C27.1181 8.3 26.9541 7.864 26.9541 7.32V4.26H26.2341V2.64H26.9541L27.1941 1.2H29.0541V2.64H30.5541V4.26H29.0541V7.02C29.0541 7.14 29.0941 7.24 29.1741 7.32C29.2541 7.4 29.3541 7.44 29.4741 7.44H31.0341V9ZM37.4593 4.26L34.1593 7.38H37.4593V9H31.5193V7.38L34.8193 4.26H31.5193V2.64H37.4593V4.26ZM40.7612 4.02C40.4412 4.02 40.2812 4.18 40.2812 4.5V5.16H42.3212V4.5C42.3212 4.18 42.1612 4.02 41.8412 4.02H40.7612ZM44.1812 8.88C42.6372 9.04 41.2372 9.12 39.9812 9.12C39.4372 9.12 39.0012 8.956 38.6732 8.628C38.3452 8.3 38.1812 7.864 38.1812 7.32V4.44C38.1812 3.84 38.3492 3.372 38.6852 3.036C39.0292 2.692 39.5012 2.52 40.1012 2.52H42.5012C43.1012 2.52 43.5692 2.692 43.9052 3.036C44.2492 3.372 44.4212 3.84 44.4212 4.44V6.66H40.2812V7.14C40.2812 7.26 40.3212 7.36 40.4012 7.44C40.4812 7.52 40.5812 7.56 40.7012 7.56C41.4932 7.56 42.6532 7.5 44.1812 7.38V8.88ZM48.1365 2.88V9H46.0365V4.5H45.1365V2.88H48.1365ZM46.0365 0.48H48.1365V2.16H46.0365V0.48ZM53.7802 9C53.0042 9.08 52.2442 9.12 51.5002 9.12C50.9562 9.12 50.5202 8.956 50.1922 8.628C49.8642 8.3 49.7002 7.864 49.7002 7.32V4.26H48.9802V2.64H49.7002L49.9402 1.2H51.8002V2.64H53.3002V4.26H51.8002V7.02C51.8002 7.14 51.8402 7.24 51.9202 7.32C52.0002 7.4 52.1002 7.44 52.2202 7.44H53.7802V9ZM56.7254 6.48V9H54.6254V0.599999H56.7254V4.86H57.6854L59.0054 2.64H61.2254L59.4254 5.7L61.2254 9H59.0054L57.6254 6.48H56.7254ZM64.4607 2.88V9H62.3607V4.5H61.4607V2.88H64.4607ZM62.3607 0.48H64.4607V2.16H62.3607V0.48ZM72.1445 7.2C72.1445 7.8 71.9725 8.272 71.6285 8.616C71.2925 8.952 70.8245 9.12 70.2245 9.12H67.4645C66.8645 9.12 66.3925 8.952 66.0485 8.616C65.7125 8.272 65.5445 7.8 65.5445 7.2V4.44C65.5445 3.84 65.7125 3.372 66.0485 3.036C66.3925 2.692 66.8645 2.52 67.4645 2.52H70.2245C70.8245 2.52 71.2925 2.692 71.6285 3.036C71.9725 3.372 72.1445 3.84 72.1445 4.44V7.2ZM70.0445 4.62C70.0445 4.3 69.8845 4.14 69.5645 4.14H68.1245C67.8045 4.14 67.6445 4.3 67.6445 4.62V7.02C67.6445 7.34 67.8045 7.5 68.1245 7.5H69.5645C69.8845 7.5 70.0445 7.34 70.0445 7.02V4.62ZM72.983 7.32C74.607 7.44 75.887 7.5 76.823 7.5C76.943 7.5 77.043 7.46 77.123 7.38C77.203 7.3 77.243 7.2 77.243 7.08V6.66H74.663C74.119 6.66 73.683 6.496 73.355 6.168C73.027 5.84 72.863 5.404 72.863 4.86V4.44C72.863 3.896 73.027 3.46 73.355 3.132C73.683 2.804 74.119 2.64 74.663 2.64H78.743V4.2H75.383C75.263 4.2 75.163 4.24 75.083 4.32C75.003 4.4 74.963 4.5 74.963 4.62C74.963 4.74 75.003 4.84 75.083 4.92C75.163 5 75.263 5.04 75.383 5.04H77.543C78.087 5.04 78.523 5.204 78.851 5.532C79.179 5.86 79.343 6.296 79.343 6.84V7.32C79.343 7.864 79.179 8.3 78.851 8.628C78.523 8.956 78.087 9.12 77.543 9.12C76.127 9.12 74.607 9.04 72.983 8.88V7.32ZM82.284 6.48V9H80.184V0.599999H82.284V4.86H83.244L84.564 2.64H86.784L84.984 5.7L86.784 9H84.564L83.184 6.48H82.284Z" fill="#1E1CC8"/>
<path d="M11.6007 9V10H12.6007V9H11.6007ZM4.9407 9H3.9407V10H4.9407V9ZM4.9407 0.599999V-0.400001H3.9407V0.599999H4.9407ZM11.6007 0.599999H12.6007V-0.400001H11.6007V0.599999ZM11.6007 2.28V3.28H12.6007V2.28H11.6007ZM7.1007 2.28V1.28H6.1007V2.28H7.1007ZM7.1007 3.9H6.1007V4.9H7.1007V3.9ZM10.6407 3.9H11.6407V2.9H10.6407V3.9ZM10.6407 5.58V6.58H11.6407V5.58H10.6407ZM7.1007 5.58V4.58H6.1007V5.58H7.1007ZM7.1007 7.32H6.1007V8.32H7.1007V7.32ZM11.6007 7.32H12.6007V6.32H11.6007V7.32ZM11.6007 8H4.9407V10H11.6007V8ZM5.9407 9V0.599999H3.9407V9H5.9407ZM4.9407 1.6H11.6007V-0.400001H4.9407V1.6ZM10.6007 0.599999V2.28H12.6007V0.599999H10.6007ZM11.6007 1.28H7.1007V3.28H11.6007V1.28ZM6.1007 2.28V3.9H8.1007V2.28H6.1007ZM7.1007 4.9H10.6407V2.9H7.1007V4.9ZM9.6407 3.9V5.58H11.6407V3.9H9.6407ZM10.6407 4.58H7.1007V6.58H10.6407V4.58ZM6.1007 5.58V7.32H8.1007V5.58H6.1007ZM7.1007 8.32H11.6007V6.32H7.1007V8.32ZM10.6007 7.32V9H12.6007V7.32H10.6007ZM18.0779 8.88L18.1842 9.87433L19.0779 9.77875V8.88H18.0779ZM12.8099 8.628L12.1028 9.33511L12.1028 9.33511L12.8099 8.628ZM12.8219 3.156L13.529 3.86311L13.529 3.86311L12.8219 3.156ZM18.0779 2.64H19.0779V1.64H18.0779V2.64ZM18.0779 4.26V5.26H19.0779V4.26H18.0779ZM18.0779 7.32H19.0779V6.2332L17.9948 6.32345L18.0779 7.32ZM17.9715 7.88567C16.5006 8.04299 15.2173 8.12 14.1179 8.12V10.12C15.3064 10.12 16.6632 10.037 18.1842 9.87433L17.9715 7.88567ZM14.1179 8.12C13.7897 8.12 13.6252 8.0291 13.517 7.92089L12.1028 9.33511C12.6506 9.8829 13.3581 10.12 14.1179 10.12V8.12ZM13.517 7.92089C13.4088 7.81269 13.3179 7.64818 13.3179 7.32H11.3179C11.3179 8.07982 11.555 8.78731 12.1028 9.33511L13.517 7.92089ZM13.3179 7.32V4.56H11.3179V7.32H13.3179ZM13.3179 4.56C13.3179 4.15187 13.4267 3.9654 13.529 3.86311L12.1148 2.44889C11.5451 3.0186 11.3179 3.76813 11.3179 4.56H13.3179ZM13.529 3.86311C13.6436 3.74846 13.8375 3.64 14.2379 3.64V1.64C13.4383 1.64 12.6881 1.87554 12.1148 2.44889L13.529 3.86311ZM14.2379 3.64H18.0779V1.64H14.2379V3.64ZM17.0779 2.64V4.26H19.0779V2.64H17.0779ZM18.0779 3.26H14.8979V5.26H18.0779V3.26ZM14.8979 3.26C14.5837 3.26 14.1645 3.33921 13.8308 3.67289C13.4971 4.00657 13.4179 4.42585 13.4179 4.74H15.4179C15.4179 4.74035 15.4182 4.78136 15.3966 4.84623C15.3733 4.91593 15.3272 5.00494 15.245 5.08711C15.1628 5.16927 15.0738 5.21545 15.0041 5.23868C14.9393 5.2603 14.8982 5.26 14.8979 5.26V3.26ZM13.4179 4.74V7.08H15.4179V4.74H13.4179ZM13.4179 7.08C13.4179 7.44736 13.551 7.80731 13.8308 8.08711L15.245 6.67289C15.2958 6.72373 15.3435 6.79156 15.3764 6.87361C15.4087 6.95449 15.4179 7.02728 15.4179 7.08H13.4179ZM13.8308 8.08711C14.1106 8.3669 14.4705 8.5 14.8379 8.5V6.5C14.8906 6.5 14.9634 6.50917 15.0443 6.54152C15.1263 6.57434 15.1942 6.62205 15.245 6.67289L13.8308 8.08711ZM14.8379 8.5C15.6011 8.5 16.7149 8.43705 18.1609 8.31655L17.9948 6.32345C16.5608 6.44295 15.5147 6.5 14.8379 6.5V8.5ZM17.0779 7.32V8.88H19.0779V7.32H17.0779ZM21.1355 2.76H20.1355V3.98722L21.3375 3.7394L21.1355 2.76ZM25.0235 3.012L24.3164 3.71911L24.3164 3.71911L25.0235 3.012ZM25.5155 9V10H26.5155V9H25.5155ZM23.4155 9H22.4155V10H23.4155V9ZM21.7355 4.188L21.6115 3.19571L21.6076 3.19622L21.7355 4.188ZM21.1355 4.26L21.0309 3.26549L20.1355 3.35974V4.26H21.1355ZM21.1355 9V10H22.1355V9H21.1355ZM19.0355 9H18.0355V10H19.0355V9ZM19.0355 0.599999V-0.400001H18.0355V0.599999H19.0355ZM21.1355 0.599999H22.1355V-0.400001H21.1355V0.599999ZM21.3375 3.7394C22.0688 3.5886 22.6785 3.52 23.1755 3.52V1.52C22.5046 1.52 21.7542 1.6114 20.9336 1.7806L21.3375 3.7394ZM23.1755 3.52H23.7155V1.52H23.1755V3.52ZM23.7155 3.52C24.0437 3.52 24.2082 3.6109 24.3164 3.71911L25.7307 2.30489C25.1829 1.7571 24.4754 1.52 23.7155 1.52V3.52ZM24.3164 3.71911C24.4246 3.82731 24.5155 3.99182 24.5155 4.32H26.5155C26.5155 3.56018 26.2784 2.85269 25.7307 2.30489L24.3164 3.71911ZM24.5155 4.32V9H26.5155V4.32H24.5155ZM25.5155 8H23.4155V10H25.5155V8ZM24.4155 9V4.56H22.4155V9H24.4155ZM24.4155 4.56C24.4155 4.19264 24.2824 3.83269 24.0027 3.55289L22.5884 4.96711C22.5376 4.91627 22.4899 4.84843 22.4571 4.76639C22.4247 4.68551 22.4155 4.61272 22.4155 4.56H24.4155ZM24.0027 3.55289C23.7229 3.2731 23.3629 3.14 22.9955 3.14V5.14C22.9428 5.14 22.87 5.13083 22.7892 5.09848C22.7071 5.06566 22.6393 5.01795 22.5884 4.96711L24.0027 3.55289ZM22.9955 3.14H22.5755V5.14H22.9955V3.14ZM22.5755 3.14C22.2372 3.14 21.9151 3.15777 21.6115 3.19572L21.8596 5.18028C22.068 5.15423 22.3059 5.14 22.5755 5.14V3.14ZM21.6076 3.19622C21.3631 3.22776 21.1718 3.25066 21.0309 3.26549L21.2402 5.25451C21.4033 5.23734 21.612 5.21224 21.8635 5.17978L21.6076 3.19622ZM20.1355 4.26V9H22.1355V4.26H20.1355ZM21.1355 8H19.0355V10H21.1355V8ZM20.0355 9V0.599999H18.0355V9H20.0355ZM19.0355 1.6H21.1355V-0.400001H19.0355V1.6ZM20.1355 0.599999V2.76H22.1355V0.599999H20.1355ZM31.0341 9L31.1367 9.99473L32.0341 9.90221V9H31.0341ZM27.4461 8.628L28.1532 7.92089L28.1532 7.92089L27.4461 8.628ZM26.9541 4.26H27.9541V3.26H26.9541V4.26ZM26.2341 4.26H25.2341V5.26H26.2341V4.26ZM26.2341 2.64V1.64H25.2341V2.64H26.2341ZM26.9541 2.64V3.64H27.8013L27.9405 2.8044L26.9541 2.64ZM27.1941 1.2V0.2H26.347L26.2077 1.0356L27.1941 1.2ZM29.0541 1.2H30.0541V0.2H29.0541V1.2ZM29.0541 2.64H28.0541V3.64H29.0541V2.64ZM30.5541 2.64H31.5541V1.64H30.5541V2.64ZM30.5541 4.26V5.26H31.5541V4.26H30.5541ZM29.0541 4.26V3.26H28.0541V4.26H29.0541ZM29.1741 7.32L28.467 8.02711L28.467 8.02711L29.1741 7.32ZM31.0341 7.44H32.0341V6.44H31.0341V7.44ZM30.9316 8.00527C30.188 8.08193 29.4623 8.12 28.7541 8.12V10.12C29.534 10.12 30.3283 10.0781 31.1367 9.99473L30.9316 8.00527ZM28.7541 8.12C28.426 8.12 28.2615 8.0291 28.1532 7.92089L26.739 9.33511C27.2868 9.8829 27.9943 10.12 28.7541 10.12V8.12ZM28.1532 7.92089C28.045 7.81269 27.9541 7.64818 27.9541 7.32H25.9541C25.9541 8.07982 26.1912 8.78731 26.739 9.33511L28.1532 7.92089ZM27.9541 7.32V4.26H25.9541V7.32H27.9541ZM26.9541 3.26H26.2341V5.26H26.9541V3.26ZM27.2341 4.26V2.64H25.2341V4.26H27.2341ZM26.2341 3.64H26.9541V1.64H26.2341V3.64ZM27.9405 2.8044L28.1805 1.3644L26.2077 1.0356L25.9677 2.4756L27.9405 2.8044ZM27.1941 2.2H29.0541V0.2H27.1941V2.2ZM28.0541 1.2V2.64H30.0541V1.2H28.0541ZM29.0541 3.64H30.5541V1.64H29.0541V3.64ZM29.5541 2.64V4.26H31.5541V2.64H29.5541ZM30.5541 3.26H29.0541V5.26H30.5541V3.26ZM28.0541 4.26V7.02H30.0541V4.26H28.0541ZM28.0541 7.02C28.0541 7.38736 28.1872 7.74731 28.467 8.02711L29.8812 6.61289C29.9321 6.66373 29.9798 6.73157 30.0126 6.81361C30.045 6.89449 30.0541 6.96728 30.0541 7.02H28.0541ZM28.467 8.02711C28.7468 8.3069 29.1068 8.44 29.4741 8.44V6.44C29.5269 6.44 29.5997 6.44917 29.6805 6.48152C29.7626 6.51434 29.8304 6.56205 29.8812 6.61289L28.467 8.02711ZM29.4741 8.44H31.0341V6.44H29.4741V8.44ZM30.0341 7.44V9H32.0341V7.44H30.0341ZM37.4593 4.26L38.1463 4.98665L38.4593 4.69073V4.26H37.4593ZM34.1593 7.38L33.4723 6.65335L31.646 8.38H34.1593V7.38ZM37.4593 7.38H38.4593V6.38H37.4593V7.38ZM37.4593 9V10H38.4593V9H37.4593ZM31.5193 9H30.5193V10H31.5193V9ZM31.5193 7.38L30.8323 6.65335L30.5193 6.94927V7.38H31.5193ZM34.8193 4.26L35.5063 4.98665L37.3326 3.26H34.8193V4.26ZM31.5193 4.26H30.5193V5.26H31.5193V4.26ZM31.5193 2.64V1.64H30.5193V2.64H31.5193ZM37.4593 2.64H38.4593V1.64H37.4593V2.64ZM36.7723 3.53335L33.4723 6.65335L34.8463 8.10665L38.1463 4.98665L36.7723 3.53335ZM34.1593 8.38H37.4593V6.38H34.1593V8.38ZM36.4593 7.38V9H38.4593V7.38H36.4593ZM37.4593 8H31.5193V10H37.4593V8ZM32.5193 9V7.38H30.5193V9H32.5193ZM32.2063 8.10665L35.5063 4.98665L34.1323 3.53335L30.8323 6.65335L32.2063 8.10665ZM34.8193 3.26H31.5193V5.26H34.8193V3.26ZM32.5193 4.26V2.64H30.5193V4.26H32.5193ZM31.5193 3.64H37.4593V1.64H31.5193V3.64ZM36.4593 2.64V4.26H38.4593V2.64H36.4593ZM40.2812 5.16H39.2812V6.16H40.2812V5.16ZM42.3212 5.16V6.16H43.3212V5.16H42.3212ZM44.1812 8.88L44.2842 9.87467L45.1812 9.78173V8.88H44.1812ZM38.6732 8.628L37.9661 9.33511L37.9661 9.33511L38.6732 8.628ZM38.6852 3.036L39.3923 3.74311L39.3923 3.74311L38.6852 3.036ZM43.9052 3.036L43.1898 3.73474L43.198 3.74316L43.2064 3.75138L43.9052 3.036ZM44.4212 6.66V7.66H45.4212V6.66H44.4212ZM40.2812 6.66V5.66H39.2812V6.66H40.2812ZM40.4012 7.44L41.1083 6.73289L41.1083 6.73289L40.4012 7.44ZM44.1812 7.38H45.1812V6.29839L44.1029 6.38307L44.1812 7.38ZM40.7612 3.02C40.447 3.02 40.0277 3.09921 39.6941 3.43289C39.3604 3.76657 39.2812 4.18585 39.2812 4.5H41.2812C41.2812 4.50035 41.2815 4.54136 41.2599 4.60623C41.2366 4.67593 41.1904 4.76494 41.1083 4.84711C41.0261 4.92927 40.9371 4.97545 40.8674 4.99868C40.8025 5.0203 40.7615 5.02 40.7612 5.02V3.02ZM39.2812 4.5V5.16H41.2812V4.5H39.2812ZM40.2812 6.16H42.3212V4.16H40.2812V6.16ZM43.3212 5.16V4.5H41.3212V5.16H43.3212ZM43.3212 4.5C43.3212 4.18585 43.242 3.76657 42.9083 3.43289C42.5746 3.09921 42.1553 3.02 41.8412 3.02V5.02C41.8408 5.02 41.7998 5.0203 41.7349 4.99868C41.6652 4.97545 41.5762 4.92927 41.4941 4.84711C41.4119 4.76494 41.3657 4.67593 41.3425 4.60623C41.3209 4.54136 41.3212 4.50035 41.3212 4.5H43.3212ZM41.8412 3.02H40.7612V5.02H41.8412V3.02ZM44.0781 7.88533C42.5607 8.04257 41.1959 8.12 39.9812 8.12V10.12C41.2785 10.12 42.7136 10.0374 44.2842 9.87467L44.0781 7.88533ZM39.9812 8.12C39.653 8.12 39.4885 8.0291 39.3803 7.92089L37.9661 9.33511C38.5139 9.8829 39.2213 10.12 39.9812 10.12V8.12ZM39.3803 7.92089C39.2721 7.81269 39.1812 7.64818 39.1812 7.32H37.1812C37.1812 8.07982 37.4183 8.78731 37.9661 9.33511L39.3803 7.92089ZM39.1812 7.32V4.44H37.1812V7.32H39.1812ZM39.1812 4.44C39.1812 4.03187 39.29 3.8454 39.3923 3.74311L37.9781 2.32889C37.4084 2.8986 37.1812 3.64813 37.1812 4.44H39.1812ZM39.3923 3.74311C39.5069 3.62846 39.7007 3.52 40.1012 3.52V1.52C39.3016 1.52 38.5514 1.75554 37.9781 2.32889L39.3923 3.74311ZM40.1012 3.52H42.5012V1.52H40.1012V3.52ZM42.5012 3.52C42.9027 3.52 43.0863 3.62873 43.1898 3.73474L44.6205 2.33726C44.0521 1.75527 43.2997 1.52 42.5012 1.52V3.52ZM43.2064 3.75138C43.3124 3.85492 43.4212 4.03852 43.4212 4.44H45.4212C45.4212 3.64148 45.1859 2.88908 44.6039 2.32062L43.2064 3.75138ZM43.4212 4.44V6.66H45.4212V4.44H43.4212ZM44.4212 5.66H40.2812V7.66H44.4212V5.66ZM39.2812 6.66V7.14H41.2812V6.66H39.2812ZM39.2812 7.14C39.2812 7.50736 39.4143 7.86731 39.6941 8.14711L41.1083 6.73289C41.1591 6.78373 41.2068 6.85156 41.2396 6.93361C41.272 7.01449 41.2812 7.08728 41.2812 7.14H39.2812ZM39.6941 8.14711C39.9739 8.4269 40.3338 8.56 40.7012 8.56V6.56C40.7539 6.56 40.8267 6.56917 40.9076 6.60152C40.9896 6.63434 41.0574 6.68205 41.1083 6.73289L39.6941 8.14711ZM40.7012 8.56C41.5333 8.56 42.7247 8.49746 44.2595 8.37693L44.1029 6.38307C42.5817 6.50254 41.453 6.56 40.7012 6.56V8.56ZM43.1812 7.38V8.88H45.1812V7.38H43.1812ZM48.1365 2.88H49.1365V1.88H48.1365V2.88ZM48.1365 9V10H49.1365V9H48.1365ZM46.0365 9H45.0365V10H46.0365V9ZM46.0365 4.5H47.0365V3.5H46.0365V4.5ZM45.1365 4.5H44.1365V5.5H45.1365V4.5ZM45.1365 2.88V1.88H44.1365V2.88H45.1365ZM46.0365 0.48V-0.52H45.0365V0.48H46.0365ZM48.1365 0.48H49.1365V-0.52H48.1365V0.48ZM48.1365 2.16V3.16H49.1365V2.16H48.1365ZM46.0365 2.16H45.0365V3.16H46.0365V2.16ZM47.1365 2.88V9H49.1365V2.88H47.1365ZM48.1365 8H46.0365V10H48.1365V8ZM47.0365 9V4.5H45.0365V9H47.0365ZM46.0365 3.5H45.1365V5.5H46.0365V3.5ZM46.1365 4.5V2.88H44.1365V4.5H46.1365ZM45.1365 3.88H48.1365V1.88H45.1365V3.88ZM46.0365 1.48H48.1365V-0.52H46.0365V1.48ZM47.1365 0.48V2.16H49.1365V0.48H47.1365ZM48.1365 1.16H46.0365V3.16H48.1365V1.16ZM47.0365 2.16V0.48H45.0365V2.16H47.0365ZM53.7802 9L53.8828 9.99473L54.7802 9.90221V9H53.7802ZM50.1922 8.628L50.8993 7.92089L50.8993 7.92089L50.1922 8.628ZM49.7002 4.26H50.7002V3.26H49.7002V4.26ZM48.9802 4.26H47.9802V5.26H48.9802V4.26ZM48.9802 2.64V1.64H47.9802V2.64H48.9802ZM49.7002 2.64V3.64H50.5474L50.6866 2.8044L49.7002 2.64ZM49.9402 1.2V0.2H49.0931L48.9538 1.0356L49.9402 1.2ZM51.8002 1.2H52.8002V0.2H51.8002V1.2ZM51.8002 2.64H50.8002V3.64H51.8002V2.64ZM53.3002 2.64H54.3002V1.64H53.3002V2.64ZM53.3002 4.26V5.26H54.3002V4.26H53.3002ZM51.8002 4.26V3.26H50.8002V4.26H51.8002ZM51.9202 7.32L51.2131 8.02711L51.2131 8.02711L51.9202 7.32ZM53.7802 7.44H54.7802V6.44H53.7802V7.44ZM53.6777 8.00527C52.9341 8.08193 52.2084 8.12 51.5002 8.12V10.12C52.2801 10.12 53.0744 10.0781 53.8828 9.99473L53.6777 8.00527ZM51.5002 8.12C51.1721 8.12 51.0075 8.0291 50.8993 7.92089L49.4851 9.33511C50.0329 9.8829 50.7404 10.12 51.5002 10.12V8.12ZM50.8993 7.92089C50.7911 7.81269 50.7002 7.64818 50.7002 7.32H48.7002C48.7002 8.07982 48.9373 8.78731 49.4851 9.33511L50.8993 7.92089ZM50.7002 7.32V4.26H48.7002V7.32H50.7002ZM49.7002 3.26H48.9802V5.26H49.7002V3.26ZM49.9802 4.26V2.64H47.9802V4.26H49.9802ZM48.9802 3.64H49.7002V1.64H48.9802V3.64ZM50.6866 2.8044L50.9266 1.3644L48.9538 1.0356L48.7138 2.4756L50.6866 2.8044ZM49.9402 2.2H51.8002V0.2H49.9402V2.2ZM50.8002 1.2V2.64H52.8002V1.2H50.8002ZM51.8002 3.64H53.3002V1.64H51.8002V3.64ZM52.3002 2.64V4.26H54.3002V2.64H52.3002ZM53.3002 3.26H51.8002V5.26H53.3002V3.26ZM50.8002 4.26V7.02H52.8002V4.26H50.8002ZM50.8002 7.02C50.8002 7.38736 50.9333 7.74731 51.2131 8.02711L52.6273 6.61289C52.6782 6.66373 52.7259 6.73157 52.7587 6.81361C52.7911 6.89449 52.8002 6.96728 52.8002 7.02H50.8002ZM51.2131 8.02711C51.4929 8.3069 51.8529 8.44 52.2202 8.44V6.44C52.273 6.44 52.3457 6.44917 52.4266 6.48152C52.5087 6.51434 52.5765 6.56205 52.6273 6.61289L51.2131 8.02711ZM52.2202 8.44H53.7802V6.44H52.2202V8.44ZM52.7802 7.44V9H54.7802V7.44H52.7802ZM56.7254 6.48V5.48H55.7254V6.48H56.7254ZM56.7254 9V10H57.7254V9H56.7254ZM54.6254 9H53.6254V10H54.6254V9ZM54.6254 0.599999V-0.400001H53.6254V0.599999H54.6254ZM56.7254 0.599999H57.7254V-0.400001H56.7254V0.599999ZM56.7254 4.86H55.7254V5.86H56.7254V4.86ZM57.6854 4.86V5.86H58.2542L58.5449 5.37108L57.6854 4.86ZM59.0054 2.64V1.64H58.4366L58.1459 2.12892L59.0054 2.64ZM61.2254 2.64L62.0873 3.14702L62.9738 1.64H61.2254V2.64ZM59.4254 5.7L58.5635 5.19298L58.2762 5.68139L58.5475 6.17885L59.4254 5.7ZM61.2254 9V10H62.9099L62.1033 8.52115L61.2254 9ZM59.0054 9L58.1283 9.48031L58.4129 10H59.0054V9ZM57.6254 6.48L58.5025 5.99969L58.2179 5.48H57.6254V6.48ZM55.7254 6.48V9H57.7254V6.48H55.7254ZM56.7254 8H54.6254V10H56.7254V8ZM55.6254 9V0.599999H53.6254V9H55.6254ZM54.6254 1.6H56.7254V-0.400001H54.6254V1.6ZM55.7254 0.599999V4.86H57.7254V0.599999H55.7254ZM56.7254 5.86H57.6854V3.86H56.7254V5.86ZM58.5449 5.37108L59.8649 3.15108L58.1459 2.12892L56.8259 4.34892L58.5449 5.37108ZM59.0054 3.64H61.2254V1.64H59.0054V3.64ZM60.3635 2.13298L58.5635 5.19298L60.2873 6.20702L62.0873 3.14702L60.3635 2.13298ZM58.5475 6.17885L60.3475 9.47885L62.1033 8.52115L60.3033 5.22115L58.5475 6.17885ZM61.2254 8H59.0054V10H61.2254V8ZM59.8825 8.51969L58.5025 5.99969L56.7483 6.96031L58.1283 9.48031L59.8825 8.51969ZM57.6254 5.48H56.7254V7.48H57.6254V5.48ZM64.4607 2.88H65.4607V1.88H64.4607V2.88ZM64.4607 9V10H65.4607V9H64.4607ZM62.3607 9H61.3607V10H62.3607V9ZM62.3607 4.5H63.3607V3.5H62.3607V4.5ZM61.4607 4.5H60.4607V5.5H61.4607V4.5ZM61.4607 2.88V1.88H60.4607V2.88H61.4607ZM62.3607 0.48V-0.52H61.3607V0.48H62.3607ZM64.4607 0.48H65.4607V-0.52H64.4607V0.48ZM64.4607 2.16V3.16H65.4607V2.16H64.4607ZM62.3607 2.16H61.3607V3.16H62.3607V2.16ZM63.4607 2.88V9H65.4607V2.88H63.4607ZM64.4607 8H62.3607V10H64.4607V8ZM63.3607 9V4.5H61.3607V9H63.3607ZM62.3607 3.5H61.4607V5.5H62.3607V3.5ZM62.4607 4.5V2.88H60.4607V4.5H62.4607ZM61.4607 3.88H64.4607V1.88H61.4607V3.88ZM62.3607 1.48H64.4607V-0.52H62.3607V1.48ZM63.4607 0.48V2.16H65.4607V0.48H63.4607ZM64.4607 1.16H62.3607V3.16H64.4607V1.16ZM63.3607 2.16V0.48H61.3607V2.16H63.3607ZM71.6285 8.616L72.3356 9.32311L72.3356 9.32311L71.6285 8.616ZM66.0485 8.616L65.3331 9.31474L65.3413 9.32316L65.3497 9.33138L66.0485 8.616ZM66.0485 3.036L66.7556 3.74311L66.7556 3.74311L66.0485 3.036ZM71.6285 3.036L70.9131 3.73474L70.9213 3.74316L70.9297 3.75138L71.6285 3.036ZM71.1445 7.2C71.1445 7.60044 71.036 7.79425 70.9213 7.90889L72.3356 9.32311C72.9089 8.74975 73.1445 7.99956 73.1445 7.2H71.1445ZM70.9213 7.90889C70.8191 8.01118 70.6326 8.12 70.2245 8.12V10.12C71.0163 10.12 71.7658 9.89282 72.3356 9.32311L70.9213 7.90889ZM70.2245 8.12H67.4645V10.12H70.2245V8.12ZM67.4645 8.12C67.0575 8.12 66.8607 8.01152 66.7472 7.90062L65.3497 9.33138C65.9242 9.89248 66.6714 10.12 67.4645 10.12V8.12ZM66.7638 7.91726C66.6529 7.80373 66.5445 7.60699 66.5445 7.2H64.5445C64.5445 7.99301 64.772 8.74027 65.3331 9.31474L66.7638 7.91726ZM66.5445 7.2V4.44H64.5445V7.2H66.5445ZM66.5445 4.44C66.5445 4.03187 66.6533 3.8454 66.7556 3.74311L65.3413 2.32889C64.7716 2.8986 64.5445 3.64813 64.5445 4.44H66.5445ZM66.7556 3.74311C66.8702 3.62846 67.064 3.52 67.4645 3.52V1.52C66.6649 1.52 65.9147 1.75554 65.3413 2.32889L66.7556 3.74311ZM67.4645 3.52H70.2245V1.52H67.4645V3.52ZM70.2245 3.52C70.6259 3.52 70.8095 3.62873 70.9131 3.73474L72.3438 2.33726C71.7754 1.75527 71.023 1.52 70.2245 1.52V3.52ZM70.9297 3.75138C71.0357 3.85492 71.1445 4.03852 71.1445 4.44H73.1445C73.1445 3.64148 72.9092 2.88908 72.3272 2.32062L70.9297 3.75138ZM71.1445 4.44V7.2H73.1445V4.44H71.1445ZM71.0445 4.62C71.0445 4.30586 70.9652 3.88657 70.6316 3.55289C70.2979 3.21921 69.8786 3.14 69.5645 3.14V5.14C69.5641 5.14 69.5231 5.1403 69.4582 5.11868C69.3885 5.09545 69.2995 5.04927 69.2173 4.96711C69.1352 4.88494 69.089 4.79593 69.0658 4.72623C69.0441 4.66136 69.0445 4.62035 69.0445 4.62H71.0445ZM69.5645 3.14H68.1245V5.14H69.5645V3.14ZM68.1245 3.14C67.8103 3.14 67.391 3.21921 67.0573 3.55289C66.7237 3.88657 66.6445 4.30586 66.6445 4.62H68.6445C68.6445 4.62035 68.6448 4.66136 68.6231 4.72623C68.5999 4.79593 68.5537 4.88494 68.4716 4.96711C68.3894 5.04927 68.3004 5.09545 68.2307 5.11868C68.1658 5.1403 68.1248 5.14 68.1245 5.14V3.14ZM66.6445 4.62V7.02H68.6445V4.62H66.6445ZM66.6445 7.02C66.6445 7.33414 66.7237 7.75343 67.0573 8.08711C67.391 8.42079 67.8103 8.5 68.1245 8.5V6.5C68.1248 6.5 68.1658 6.4997 68.2307 6.52132C68.3004 6.54455 68.3894 6.59073 68.4716 6.67289C68.5537 6.75506 68.5999 6.84407 68.6231 6.91377C68.6448 6.97863 68.6445 7.01965 68.6445 7.02H66.6445ZM68.1245 8.5H69.5645V6.5H68.1245V8.5ZM69.5645 8.5C69.8786 8.5 70.2979 8.42079 70.6316 8.08711C70.9652 7.75343 71.0445 7.33414 71.0445 7.02H69.0445C69.0445 7.01965 69.0441 6.97864 69.0658 6.91377C69.089 6.84407 69.1352 6.75506 69.2173 6.67289C69.2995 6.59073 69.3885 6.54455 69.4582 6.52132C69.5231 6.4997 69.5641 6.5 69.5645 6.5V8.5ZM71.0445 7.02V4.62H69.0445V7.02H71.0445ZM72.983 7.32L73.0567 6.32272L71.983 6.24338V7.32H72.983ZM77.123 7.38L77.8302 8.08711L77.8302 8.08711L77.123 7.38ZM77.243 6.66H78.243V5.66H77.243V6.66ZM73.355 6.168L74.0622 5.46089L74.0622 5.46089L73.355 6.168ZM73.355 3.132L74.0622 3.83911L73.355 3.132ZM78.743 2.64H79.743V1.64H78.743V2.64ZM78.743 4.2V5.2H79.743V4.2H78.743ZM75.083 4.32L75.7902 5.02711L75.7902 5.02711L75.083 4.32ZM75.083 4.92L74.3759 5.62711L74.3759 5.62711L75.083 4.92ZM78.851 5.532L79.5582 4.82489L79.5582 4.82489L78.851 5.532ZM78.851 8.628L79.5582 9.33511L79.5582 9.33511L78.851 8.628ZM72.983 8.88H71.983V9.78632L72.885 9.87518L72.983 8.88ZM72.9094 8.31728C74.5428 8.43798 75.851 8.5 76.823 8.5V6.5C75.9231 6.5 74.6713 6.44202 73.0567 6.32272L72.9094 8.31728ZM76.823 8.5C77.1904 8.5 77.5504 8.3669 77.8302 8.08711L76.4159 6.67289C76.4668 6.62205 76.5346 6.57434 76.6167 6.54152C76.6975 6.50917 76.7703 6.5 76.823 6.5V8.5ZM77.8302 8.08711C78.1099 7.80731 78.243 7.44736 78.243 7.08H76.243C76.243 7.02728 76.2522 6.95449 76.2846 6.87361C76.3174 6.79157 76.3651 6.72373 76.4159 6.67289L77.8302 8.08711ZM78.243 7.08V6.66H76.243V7.08H78.243ZM77.243 5.66H74.663V7.66H77.243V5.66ZM74.663 5.66C74.3349 5.66 74.1704 5.5691 74.0622 5.46089L72.6479 6.87511C73.1957 7.4229 73.9032 7.66 74.663 7.66V5.66ZM74.0622 5.46089C73.9539 5.35269 73.863 5.18818 73.863 4.86H71.863C71.863 5.61982 72.1001 6.32731 72.6479 6.87511L74.0622 5.46089ZM73.863 4.86V4.44H71.863V4.86H73.863ZM73.863 4.44C73.863 4.11182 73.9539 3.94731 74.0622 3.83911L72.6479 2.42489C72.1001 2.97269 71.863 3.68018 71.863 4.44H73.863ZM74.0622 3.83911C74.1704 3.7309 74.3349 3.64 74.663 3.64V1.64C73.9032 1.64 73.1957 1.8771 72.6479 2.42489L74.0622 3.83911ZM74.663 3.64H78.743V1.64H74.663V3.64ZM77.743 2.64V4.2H79.743V2.64H77.743ZM78.743 3.2H75.383V5.2H78.743V3.2ZM75.383 3.2C75.0157 3.2 74.6557 3.3331 74.3759 3.61289L75.7902 5.02711C75.7393 5.07795 75.6715 5.12566 75.5894 5.15848C75.5086 5.19083 75.4358 5.2 75.383 5.2V3.2ZM74.3759 3.61289C74.0961 3.89269 73.963 4.25264 73.963 4.62H75.963C75.963 4.67272 75.9539 4.74551 75.9215 4.82639C75.8887 4.90844 75.841 4.97627 75.7902 5.02711L74.3759 3.61289ZM73.963 4.62C73.963 4.98736 74.0961 5.34731 74.3759 5.62711L75.7902 4.21289C75.841 4.26373 75.8887 4.33156 75.9215 4.41361C75.9539 4.49449 75.963 4.56728 75.963 4.62H73.963ZM74.3759 5.62711C74.6557 5.9069 75.0157 6.04 75.383 6.04V4.04C75.4358 4.04 75.5086 4.04917 75.5894 4.08152C75.6715 4.11434 75.7393 4.16205 75.7902 4.21289L74.3759 5.62711ZM75.383 6.04H77.543V4.04H75.383V6.04ZM77.543 6.04C77.8712 6.04 78.0357 6.1309 78.1439 6.23911L79.5582 4.82489C79.0104 4.2771 78.3029 4.04 77.543 4.04V6.04ZM78.1439 6.23911C78.2521 6.34731 78.343 6.51182 78.343 6.84H80.343C80.343 6.08018 80.1059 5.37269 79.5582 4.82489L78.1439 6.23911ZM78.343 6.84V7.32H80.343V6.84H78.343ZM78.343 7.32C78.343 7.64818 78.2521 7.81269 78.1439 7.92089L79.5582 9.33511C80.1059 8.78731 80.343 8.07982 80.343 7.32H78.343ZM78.1439 7.92089C78.0357 8.0291 77.8712 8.12 77.543 8.12V10.12C78.3029 10.12 79.0104 9.8829 79.5582 9.33511L78.1439 7.92089ZM77.543 8.12C76.1643 8.12 74.6773 8.04208 73.0811 7.88482L72.885 9.87518C74.5368 10.0379 76.0898 10.12 77.543 10.12V8.12ZM73.983 8.88V7.32H71.983V8.88H73.983ZM82.284 6.48V5.48H81.284V6.48H82.284ZM82.284 9V10H83.284V9H82.284ZM80.184 9H79.184V10H80.184V9ZM80.184 0.599999V-0.400001H79.184V0.599999H80.184ZM82.284 0.599999H83.284V-0.400001H82.284V0.599999ZM82.284 4.86H81.284V5.86H82.284V4.86ZM83.244 4.86V5.86H83.8128L84.1035 5.37108L83.244 4.86ZM84.564 2.64V1.64H83.9952L83.7044 2.12892L84.564 2.64ZM86.784 2.64L87.6459 3.14702L88.5324 1.64H86.784V2.64ZM84.984 5.7L84.1221 5.19298L83.8347 5.68139L84.1061 6.17885L84.984 5.7ZM86.784 9V10H88.4685L87.6619 8.52115L86.784 9ZM84.564 9L83.6869 9.48031L83.9715 10H84.564V9ZM83.184 6.48L84.0611 5.99969L83.7765 5.48H83.184V6.48ZM81.284 6.48V9H83.284V6.48H81.284ZM82.284 8H80.184V10H82.284V8ZM81.184 9V0.599999H79.184V9H81.184ZM80.184 1.6H82.284V-0.400001H80.184V1.6ZM81.284 0.599999V4.86H83.284V0.599999H81.284ZM82.284 5.86H83.244V3.86H82.284V5.86ZM84.1035 5.37108L85.4235 3.15108L83.7044 2.12892L82.3844 4.34892L84.1035 5.37108ZM84.564 3.64H86.784V1.64H84.564V3.64ZM85.9221 2.13298L84.1221 5.19298L85.8459 6.20702L87.6459 3.14702L85.9221 2.13298ZM84.1061 6.17885L85.9061 9.47885L87.6619 8.52115L85.8619 5.22115L84.1061 6.17885ZM86.784 8H84.564V10H86.784V8ZM85.4411 8.51969L84.0611 5.99969L82.3069 6.96031L83.6869 9.48031L85.4411 8.51969ZM83.184 5.48H82.284V7.48H83.184V5.48Z" fill="white"/>
</g>
<defs>
<filter id="filter0_d_129_3" x="0.940918" y="0.47998" width="89.8433" height="16.6401" filterUnits="userSpaceOnUse" color-interpolation-filters="sRGB">
<feFlood flood-opacity="0" result="BackgroundImageFix"/>
<feColorMatrix in="SourceAlpha" type="matrix" values="0 0 0 0 0 0 0 0 0 0 0 0 0 0 0 0 0 0 127 0" result="hardAlpha"/>
<feOffset dy="4"/>
<feGaussianBlur stdDeviation="2"/>
<feComposite in2="hardAlpha" operator="out"/>
<feColorMatrix type="matrix" values="0 0 0 0 0 0 0 0 0 0 0 0 0 0 0 0 0 0 0.25 0"/>
<feBlend mode="normal" in2="BackgroundImageFix" result="effect1_dropShadow_129_3"/>
<feBlend mode="normal" in="SourceGraphic" in2="effect1_dropShadow_129_3" result="shape"/>
</filter>
</defs>
</svg>
